<svg xmlns="http://www.w3.org/2000/svg" width="1413.363" height="81.917" viewBox="0 0 1413.363 81.917">
  <path id="Subtração_1" data-name="Subtração 1" d="M704.992,195.917a7.022,7.022,0,1,1,7.022-7.022A7.029,7.029,0,0,1,704.992,195.917ZM39.32,192.674a7.021,7.021,0,1,1,7.022-7.021A7.029,7.029,0,0,1,39.32,192.674ZM675.267,190.3a8.66,8.66,0,1,1,8.66-8.66A8.67,8.67,0,0,1,675.267,190.3ZM9.6,187.057a8.66,8.66,0,1,1,8.66-8.66A8.67,8.67,0,0,1,9.6,187.057Zm982.255-3.006h0a5.851,5.851,0,1,1,3.16-.929,5.831,5.831,0,0,1-3.16.929Zm-665.67-3.243h0a5.852,5.852,0,1,1,3.161-.929A5.831,5.831,0,0,1,326.177,180.807Zm482.595-5.16a7.022,7.022,0,1,1,7.022-7.022A7.03,7.03,0,0,1,808.775,175.647Zm-17.863-.877a5.751,5.751,0,0,1-5.455-7.573,8.66,8.66,0,1,1-10.924-13.216,7.095,7.095,0,1,1,8.293-1.319,7.414,7.414,0,0,1-.689.613A8.667,8.667,0,0,1,787,164.8a5.75,5.75,0,1,1,3.909,9.967Zm512.8-1.982a6.238,6.238,0,1,1,.005,0h-.005ZM143.1,172.4a7.021,7.021,0,1,1,7.022-7.021A7.029,7.029,0,0,1,143.1,172.4Zm-17.862-.874a5.752,5.752,0,0,1-5.453-7.579,8.661,8.661,0,1,1-10.929-13.213,7.094,7.094,0,1,1,8.3-1.316,7.321,7.321,0,0,1-.687.61,8.669,8.669,0,0,1,4.863,11.531,5.751,5.751,0,1,1,3.91,9.967Zm512.807-1.988a5.853,5.853,0,1,1,5.072-2.927A5.854,5.854,0,0,1,638.047,169.542Zm335.773-2.284a5.851,5.851,0,1,1,3.161-.929,5.831,5.831,0,0,1-3.161.929ZM698.2,166.895a5.851,5.851,0,1,1,5.852-5.852A5.858,5.858,0,0,1,698.2,166.895Zm529.378-2.878a7.682,7.682,0,1,1,3.793-1A7.688,7.688,0,0,1,1227.582,164.017Zm-919.429,0a5.853,5.853,0,1,1,3.158-.93A5.831,5.831,0,0,1,308.153,164.016Zm787.48-.236a5.854,5.854,0,1,1,3.158-.93A5.833,5.833,0,0,1,1095.633,163.78Zm-1063.1-.129a5.851,5.851,0,1,1,5.851-5.851A5.858,5.858,0,0,1,32.533,163.651Zm529.376-2.881a7.679,7.679,0,1,1,6.661-3.842A7.684,7.684,0,0,1,561.909,160.771Zm-131.95-.233a5.846,5.846,0,1,1,3.161-.929,5.829,5.829,0,0,1-3.161.929Zm591.769-2.239a9.354,9.354,0,1,1,5.052-1.487A9.331,9.331,0,0,1,1021.728,158.3Zm-352.078-.766a3.979,3.979,0,1,1,3.979-3.979A3.983,3.983,0,0,1,669.65,157.533Zm495.044-2.065a5.851,5.851,0,1,1,5.073-2.926A5.853,5.853,0,0,1,1164.694,155.468Zm-422.488-.275a11.468,11.468,0,1,1,8.11-3.359A11.392,11.392,0,0,1,742.206,155.193Zm-386.144-.137a9.363,9.363,0,1,1,5.053-1.487A9.33,9.33,0,0,1,356.062,155.056ZM894.7,154.5a5.745,5.745,0,1,1,4.089-1.706A5.718,5.718,0,0,1,894.7,154.5ZM3.979,154.29a3.979,3.979,0,1,1,3.979-3.979A3.983,3.983,0,0,1,3.979,154.29Zm799.023-.6a4.793,4.793,0,0,1-3.773-7.749,5.852,5.852,0,1,1,6.7-.838,4.917,4.917,0,0,1,.443.388,4.792,4.792,0,0,1-3.369,8.2Zm604.5-1.166a5.853,5.853,0,1,1,5.073-2.927A5.853,5.853,0,0,1,1407.5,152.518Zm-908.482-.3a5.853,5.853,0,1,1,5.073-2.927A5.848,5.848,0,0,1,499.022,152.222Zm-422.488-.274a11.469,11.469,0,1,1,8.109-3.359A11.393,11.393,0,0,1,76.534,151.949Zm152.49-.69a5.751,5.751,0,1,1,4.088-1.707A5.717,5.717,0,0,1,229.024,151.259Zm-91.695-.815a4.792,4.792,0,0,1-3.769-7.752,5.852,5.852,0,1,1,6.7-.836,4.828,4.828,0,0,1,.444.389,4.792,4.792,0,0,1-3.371,8.2Zm682.462-.1a4.793,4.793,0,1,1,3.407-1.422A4.762,4.762,0,0,1,819.791,150.341Zm47.808-.094a9.392,9.392,0,1,1,6.678-2.786A9.337,9.337,0,0,1,867.6,150.247Zm-157.692-.672a5.851,5.851,0,1,1,5.851-5.851A5.858,5.858,0,0,1,709.907,149.575Zm569.113-.774a9.363,9.363,0,0,1-8.1-14.043l.023-.04.023-.04.029-.049a5.914,5.914,0,0,1-2.523.57,5.852,5.852,0,1,1,5.4-3.576,9.364,9.364,0,1,1,5.151,17.177Zm-199.429-1.2a8.659,8.659,0,0,1-3.907-.937,5.788,5.788,0,0,1-3.009-2.365,6.019,6.019,0,0,1-.406-.744,8.662,8.662,0,1,1,7.322,4.046Zm-925.472-.5a4.791,4.791,0,1,1,3.408-1.422A4.76,4.76,0,0,1,154.119,147.1Zm47.808-.093a9.392,9.392,0,1,1,6.678-2.787A9.335,9.335,0,0,1,201.928,147.007Zm772.375-.645a5.853,5.853,0,1,1,3.158-.93A5.834,5.834,0,0,1,974.3,146.361Zm-67.7-.017a7.685,7.685,0,0,1-4.161-14.149,7.533,7.533,0,0,1,.739-.419,4.792,4.792,0,1,1,7.094.136,7.686,7.686,0,0,1-3.672,14.432Zm-862.364-.012a5.851,5.851,0,1,1,5.852-5.851A5.858,5.858,0,0,1,44.235,146.332Zm569.111-.779a9.364,9.364,0,0,1-8.1-14.044c.023-.041.048-.083.072-.123a5.915,5.915,0,0,1-2.515.566,5.852,5.852,0,1,1,5.4-3.582,9.364,9.364,0,1,1,5.142,17.183Zm-199.429-1.2a8.669,8.669,0,0,1-3.893-.93,5.8,5.8,0,0,1-3.016-2.368,5.968,5.968,0,0,1-.4-.723,8.661,8.661,0,1,1,7.305,4.021Zm917.445-.608a7.685,7.685,0,1,1,6.662-3.843A7.68,7.68,0,0,1,1331.362,143.748Zm-1022.729-.629a5.853,5.853,0,1,1,3.158-.93A5.833,5.833,0,0,1,308.633,143.119Zm-67.7-.017a7.685,7.685,0,0,1-3.425-14.566,4.792,4.792,0,1,1,7.1.134,7.686,7.686,0,0,1-3.672,14.432Zm424.763-2.6a7.685,7.685,0,1,1,3.849-14.339c.076.044.158.093.259.156a9.434,9.434,0,0,1,3.327-4.8,9.278,9.278,0,0,1,5.652-1.9,9.362,9.362,0,1,1-6.116,16.45c-.1.207-.2.406-.309.592A7.718,7.718,0,0,1,665.691,140.5Zm459.825-2.472a9.366,9.366,0,1,1,5.053-1.488A9.334,9.334,0,0,1,1125.516,138.029Zm-352.083-.767a3.979,3.979,0,1,1,3.979-3.979A3.983,3.983,0,0,1,773.433,137.263Zm416.541-.987a5.852,5.852,0,0,1-5.062-8.778c.07-.122.143-.238.216-.346a8.638,8.638,0,0,1-6.079-.982,8.661,8.661,0,0,1-3.17-11.83c.065-.113.135-.228.207-.341h14.587a8.637,8.637,0,0,1,.206,9,8.742,8.742,0,0,1-1.165,1.577c.075,0,.174-.006.272-.006a5.852,5.852,0,0,1-.013,11.7Zm-46.15-.039a7.023,7.023,0,1,1,6.087-3.512A7.024,7.024,0,0,1,1143.823,136.237Zm-141.452-.886a3.979,3.979,0,1,1,2.147-.632A3.966,3.966,0,0,1,1002.371,135.351ZM13.107,135.1a9.362,9.362,0,1,1,9.362-9.363A9.373,9.373,0,0,1,13.107,135.1Zm832.882-.176A11.469,11.469,0,0,1,839.494,114h12.989a11.469,11.469,0,0,1-6.495,20.921Zm-386.144-.135A9.355,9.355,0,1,1,464.9,133.3,9.33,9.33,0,0,1,459.845,134.787Zm421.722-.29a7.092,7.092,0,1,1,5.043-2.1A7.053,7.053,0,0,1,881.567,134.5Zm-773.8-.477a3.979,3.979,0,1,1,3.978-3.979A3.983,3.983,0,0,1,107.763,134.02Zm416.537-.99a5.855,5.855,0,0,1-5.062-8.778c.064-.111.134-.224.215-.345a8.638,8.638,0,0,1-6.073-.983A8.663,8.663,0,0,1,509.165,114h17.086a8.677,8.677,0,0,1-2.207,7.331c.088,0,.177-.006.265-.006a5.852,5.852,0,0,1-.009,11.7Zm-46.148-.04a7.023,7.023,0,1,1,6.087-3.512A7.025,7.025,0,0,1,478.151,132.99ZM830,132.935a4.793,4.793,0,1,1,3.407-1.422A4.761,4.761,0,0,1,830,132.935Zm409.379-.154a3.979,3.979,0,1,1,3.449-1.99A3.975,3.975,0,0,1,1239.377,132.781ZM336.7,132.108a3.979,3.979,0,1,1,2.147-.632A3.967,3.967,0,0,1,336.7,132.108Zm-156.385-.429A11.47,11.47,0,0,1,170.675,114H189.96a11.47,11.47,0,0,1-9.643,17.679Zm610.372-.335a3.258,3.258,0,1,1,2.318-.967A3.241,3.241,0,0,1,790.689,131.344Zm-574.794-.088a7.092,7.092,0,1,1,5.043-2.1A7.051,7.051,0,0,1,215.895,131.256Zm830.611-.842a8.663,8.663,0,0,1-4.69-15.946,8.771,8.771,0,0,1,.821-.467h7.724a8.662,8.662,0,0,1-3.854,16.413Zm-122.931-.344a4.792,4.792,0,1,1,3.406-1.422A4.766,4.766,0,0,1,923.575,130.07Zm47.807-.093a9.392,9.392,0,0,1-6.7-15.977h13.4a9.393,9.393,0,0,1-6.7,15.977Zm-807.056-.283a4.792,4.792,0,1,1,3.407-1.422A4.765,4.765,0,0,1,164.326,129.693Zm409.377-.157a3.98,3.98,0,1,1,3.45-1.99A3.977,3.977,0,0,1,573.7,129.536ZM813.69,129.3a5.851,5.851,0,1,1,5.851-5.851A5.858,5.858,0,0,1,813.69,129.3Zm569.111-.774a9.362,9.362,0,0,1-8.1-14.044c.1-.168.2-.332.3-.487h15.615a9.363,9.363,0,0,1-7.818,14.531ZM125.016,128.1a3.259,3.259,0,1,1,2.317-.967A3.239,3.239,0,0,1,125.016,128.1Zm828.518-.332h0A7.023,7.023,0,0,1,951.586,114h3.878a7.022,7.022,0,0,1-1.929,13.772Zm-572.7-.6a8.662,8.662,0,0,1-7.4-13.171h14.787a8.661,8.661,0,0,1-7.385,13.171ZM257.9,126.829a4.792,4.792,0,1,1,3.407-1.422A4.766,4.766,0,0,1,257.9,126.829Zm47.807-.093A9.394,9.394,0,0,1,296.931,114h17.56a9.4,9.4,0,0,1-8.78,12.736Zm458.8-.035a7.667,7.667,0,0,1-5.78-12.7H770.3a7.668,7.668,0,0,1-5.784,12.7Zm313.57-.609h0a5.851,5.851,0,1,1,3.16-.929,5.83,5.83,0,0,1-3.16.929Zm-67.7-.018A7.686,7.686,0,0,1,1004.069,114h12.615c.057.081.109.16.157.235a7.685,7.685,0,0,1-6.457,11.839Zm-862.367-.012a5.851,5.851,0,1,1,5.852-5.852A5.858,5.858,0,0,1,148.018,126.062Zm555.8-.36a5.851,5.851,0,0,1-.1-11.7h.2a5.84,5.84,0,0,1,3.863,1.543,9.337,9.337,0,0,1,.191-1.543H726.3a9.364,9.364,0,0,1-16.815,7.319A5.85,5.85,0,0,1,703.821,125.7Zm-415.956-1.173A7.024,7.024,0,0,1,281.774,114h12.168a7.022,7.022,0,0,1-6.077,10.529Zm-189.02-1.068h0a7.67,7.67,0,0,1-7.387-5.625A7.716,7.716,0,0,1,91.39,114H106.3a7.668,7.668,0,0,1-7.456,9.461Zm313.57-.612A5.853,5.853,0,0,1,407.383,114h10.053a5.852,5.852,0,0,1-5.021,8.849Zm-67.7-.017a7.686,7.686,0,0,1-7.6-8.832h15.2a7.688,7.688,0,0,1-7.593,8.832ZM38.15,122.458a5.858,5.858,0,0,1-5.851-5.851A5.792,5.792,0,0,1,32.911,114H43.39A5.79,5.79,0,0,1,44,116.607,5.858,5.858,0,0,1,38.15,122.458Zm1240.764-2.1a5.855,5.855,0,0,1-5.825-6.361h11.66a5.809,5.809,0,0,1-.763,3.434A5.871,5.871,0,0,1,1278.915,120.361Zm-496.354-2.291A9.366,9.366,0,0,1,774.837,114h15.449A9.367,9.367,0,0,1,782.561,118.071Zm-169.322-.956A5.855,5.855,0,0,1,608.071,114h10.343l-.012.025c-.03.054-.061.109-.092.163A5.872,5.872,0,0,1,613.239,117.115Zm680.516-1.109a5.868,5.868,0,0,1-4.407-2.006h8.823A5.85,5.85,0,0,1,1293.755,116.006Zm-46.152-.04a7.043,7.043,0,0,1-4.868-1.967h9.749A6.994,6.994,0,0,1,1247.6,115.967Zm-141.451-.887a3.966,3.966,0,0,1-2.73-1.08h5.452a4.027,4.027,0,0,1-.575.448A3.963,3.963,0,0,1,1106.151,115.08Zm-989.261-.253a9.291,9.291,0,0,1-3.853-.827h7.706A9.288,9.288,0,0,1,116.89,114.827Z" transform="translate(0 -114)" fill="#fff"/>
</svg>
