<svg xmlns="http://www.w3.org/2000/svg" width="1413.358" height="75.501" viewBox="0 0 1413.358 75.501">
  <path id="Subtração_2" data-name="Subtração 2" d="M814.076,75.5l0,0h0l-2.784,0a5.856,5.856,0,0,1-4-7.955,9.365,9.365,0,1,1,2.956-3.138l-.073.123a5.916,5.916,0,0,1,2.515-.566A5.852,5.852,0,0,1,814.079,75.5Zm-278.936,0,0,0h0l-2.42,0a7.094,7.094,0,1,1,2.421,0Zm874.956,0h-15.411a9.362,9.362,0,1,1,15.411,0Zm-28.3,0h-8.883a5.851,5.851,0,0,1,8.881,0Zm-59.029,0h-12.228a7.792,7.792,0,0,1,.663-.763,7.666,7.666,0,0,1,10.843-.059,7.781,7.781,0,0,1,.72.821Zm-49.434,0h-11.7a5.852,5.852,0,0,1,11.7,0Zm-20.457,0v0h0l-3.405,0a4.789,4.789,0,1,1,3.406,0Zm-6.224,0h-22.933a11.468,11.468,0,0,1,22.933,0Zm-41.013,0h-12.051a7.122,7.122,0,0,1-1.027-4.495,7.093,7.093,0,0,1,12.04-4.292,7.095,7.095,0,0,1,1.038,8.786Zm-43.523,0h-9.024a4.819,4.819,0,0,1,1.105-4.987,4.792,4.792,0,0,1,6.777-.037,4.812,4.812,0,0,1,1.143,5.023Zm-28.077,0h-12.781a7.022,7.022,0,0,1,12.3-.885,7.085,7.085,0,0,1,.483.883Zm-15.368,0h-17.754a9.4,9.4,0,0,1,17.753,0Zm-42.281,0H1065.2a7.687,7.687,0,0,1,11.182,0Zm-33.263,0h-16.9a8.662,8.662,0,0,1,16.9,0Zm-35.283,0h-9.493a5.852,5.852,0,0,1,9.492,0Zm-44.259,0H947.754a9.362,9.362,0,1,1,15.826,0Zm-21.936,0h-8.6a7.019,7.019,0,1,1,8.6,0Zm-36.771,0H890.714a8.812,8.812,0,0,1,.742-.916c-.085,0-.177.006-.268.006a5.852,5.852,0,1,1,5.076-2.927c-.067.115-.139.231-.214.344a8.631,8.631,0,0,1,6.073.983,8.587,8.587,0,0,1,2.749,2.508Zm-164.358,0v0h0l-7.585,0a9.363,9.363,0,1,1,9.91-15.649c.1-.21.2-.409.309-.592a7.686,7.686,0,1,1,2.812,10.5c-.088-.05-.175-.1-.259-.157A9.351,9.351,0,0,1,740.515,75.5Zm-23.011,0H690.15c.017-.032.034-.062.051-.093l.053-.092a9.366,9.366,0,0,1,15.759-.717,5.853,5.853,0,0,1,11.49.9Zm-58.978,0H643.44a7.668,7.668,0,0,1,15.085,0Zm-51.713,0h-10a5.851,5.851,0,1,1,10,0Zm-26.239,0H558.45a11.468,11.468,0,1,1,22.124,0Zm-111.589,0H454.956a7.022,7.022,0,0,1,12.921-4.129,6.972,6.972,0,0,1,1.108,4.128Zm-15.475,0H434.727a9.393,9.393,0,1,1,18.782,0Zm-40.972,0H397.713a7.686,7.686,0,0,1,14.824,0Zm-34.98,0H360.443a8.661,8.661,0,1,1,17.115,0Zm-34.29,0h-11.7a5.852,5.852,0,0,1,11.7,0Zm-48.848,0h-8.857a9.364,9.364,0,1,1,9.492-.374c-.205.132-.419.258-.635.374Zm-53.817,0H223.637a8.714,8.714,0,0,1,2.149-4.157c-.085,0-.177.006-.268.006a5.853,5.853,0,1,1,5.073-2.927c-.064.11-.134.223-.215.346A8.659,8.659,0,0,1,240.6,75.5Zm-198.634,0H23.411a9.379,9.379,0,0,1,4.667-6.893,9.356,9.356,0,0,1,9.294.041,9.306,9.306,0,0,1,4.6,6.85Zm449.958-.07a4.791,4.791,0,1,1,3.407-1.422A4.763,4.763,0,0,1,491.927,75.43Zm682.462-.1a4.792,4.792,0,0,1-3.485-8.081,7.675,7.675,0,1,1,7.095.137,4.792,4.792,0,0,1-3.61,7.944Zm-332.6-.992a3.981,3.981,0,1,1,3.45-1.991A3.977,3.977,0,0,1,841.79,74.339Zm448.689,0a3.257,3.257,0,1,1,2.317-.967A3.241,3.241,0,0,1,1290.479,74.335Zm-1018.813-.6a7.019,7.019,0,1,1,6.087-3.513A7.018,7.018,0,0,1,271.665,73.73ZM585.5,72.566a4.792,4.792,0,1,1,3.407-1.422A4.758,4.758,0,0,1,585.5,72.566Zm-438.49-.139a5.853,5.853,0,0,1-5.388-8.122,9.369,9.369,0,1,1,2.957-3.139l-.03.051-.009.016-.032.054a5.913,5.913,0,0,1,2.513-.565,5.852,5.852,0,0,1-.011,11.7Zm361.7-.343a4.792,4.792,0,0,1-3.487-8.079,7.684,7.684,0,1,1,7.1.135,4.792,4.792,0,0,1-3.61,7.944Zm570.092-.314a3.981,3.981,0,1,1,2.148-.633A3.966,3.966,0,0,1,1078.807,71.771ZM176.118,71.1a3.98,3.98,0,1,1,3.451-1.991A3.974,3.974,0,0,1,176.118,71.1Zm448.693-.01a3.259,3.259,0,1,1,2.317-.967A3.236,3.236,0,0,1,624.811,71.089Zm682.929-1.234a3.979,3.979,0,1,1,3.979-3.979A3.983,3.983,0,0,1,1307.741,69.855Zm-306.177-.974a8.662,8.662,0,1,1,3.924-16.385,5.792,5.792,0,0,1,3.008,2.366,6.023,6.023,0,0,1,.406.743,8.662,8.662,0,0,1-7.338,13.276Zm-588.428-.355a3.978,3.978,0,1,1,2.148-.633A3.964,3.964,0,0,1,413.135,68.526Zm800.433-.827a9.393,9.393,0,1,1,6.678-2.787A9.333,9.333,0,0,1,1213.568,67.7ZM84.124,67.545A7.686,7.686,0,1,1,90.785,63.7,7.674,7.674,0,0,1,84.124,67.545ZM1338.971,66.9a11.468,11.468,0,1,1,8.109-3.359A11.393,11.393,0,0,1,1338.971,66.9Zm-696.9-.293a3.979,3.979,0,1,1,3.979-3.979A3.983,3.983,0,0,1,642.067,66.612ZM335.9,65.642a8.661,8.661,0,0,1,.015-17.323,8.554,8.554,0,0,1,3.893.929,5.8,5.8,0,0,1,3.017,2.369,5.9,5.9,0,0,1,.394.719A8.662,8.662,0,0,1,335.9,65.642Zm770.982-1.136a5.853,5.853,0,1,1,3.159-.931A5.832,5.832,0,0,1,1106.879,64.506ZM547.9,64.454h0a9.392,9.392,0,1,1,6.682-2.787A9.331,9.331,0,0,1,547.9,64.454Zm731.28-.216a5.852,5.852,0,0,1-3.942-10.176,4.793,4.793,0,1,1,6.7-.836,5.852,5.852,0,0,1-2.759,11.012Zm-605.886-.576A11.468,11.468,0,1,1,681.4,60.3,11.394,11.394,0,0,1,673.295,63.662Zm697.966-2.374a5.851,5.851,0,1,1,5.851-5.851A5.858,5.858,0,0,1,1371.261,61.287Zm-930.055-.028a5.853,5.853,0,1,1,3.159-.93A5.831,5.831,0,0,1,441.206,61.259Zm172.307-.265a5.85,5.85,0,0,1-3.941-10.175,4.793,4.793,0,1,1,6.7-.839,5.851,5.851,0,0,1-2.756,11.013Zm445.949-1.406a9.365,9.365,0,1,1,5.053-1.488A9.329,9.329,0,0,1,1059.462,59.588Zm243.926-1.009a7.093,7.093,0,0,1-5.042-12.081,7.166,7.166,0,0,1,.69-.614,8.669,8.669,0,0,1-4.872-11.523,5.745,5.745,0,1,1,1.55-2.4,8.661,8.661,0,1,1,10.922,13.218,7.093,7.093,0,0,1-3.249,13.4Zm-42.009-.174a4.787,4.787,0,1,1,3.408-1.422A4.763,4.763,0,0,1,1261.379,58.406Zm-555.785-.361a5.851,5.851,0,1,1,5.851-5.852A5.858,5.858,0,0,1,705.594,58.045Zm-311.809-1.7a9.366,9.366,0,1,1,5.053-1.488A9.33,9.33,0,0,1,393.785,56.344Zm792.694-.181a5.749,5.749,0,1,1,4.089-1.707A5.715,5.715,0,0,1,1186.479,56.163ZM916.467,55.4a5.849,5.849,0,1,1,5.073-2.927A5.853,5.853,0,0,1,916.467,55.4Zm-278.751-.063a7.095,7.095,0,0,1-4.352-12.693A8.67,8.67,0,0,1,628.5,31.115a5.744,5.744,0,1,1,1.547-2.395,8.661,8.661,0,1,1,10.925,13.217,7.093,7.093,0,0,1-3.252,13.4ZM595.71,55.16a4.792,4.792,0,1,1,3.407-1.422A4.763,4.763,0,0,1,595.71,55.16ZM7.987,55.11a5.852,5.852,0,1,1,5.073-2.927A5.843,5.843,0,0,1,7.987,55.11ZM520.8,52.917a5.75,5.75,0,1,1,4.089-1.706A5.714,5.714,0,0,1,520.8,52.917ZM250.8,52.158a5.852,5.852,0,1,1,5.072-2.927A5.845,5.845,0,0,1,250.8,52.158Zm602.78-1.643a7.685,7.685,0,1,1,6.662-3.843A7.68,7.68,0,0,1,853.577,50.514Zm557.943-.93a3.978,3.978,0,1,1,3.979-3.979A3.983,3.983,0,0,1,1411.52,49.585ZM187.907,47.274a7.684,7.684,0,1,1,6.662-3.843A7.687,7.687,0,0,1,187.907,47.274Zm797.642-.189a5.855,5.855,0,1,1,3.158-.931A5.832,5.832,0,0,1,985.549,47.085Zm-239.7-.743a3.979,3.979,0,1,1,3.978-3.979A3.983,3.983,0,0,1,745.851,46.342Zm637.12-2.374a5.851,5.851,0,1,1,5.851-5.851A5.858,5.858,0,0,1,1382.971,43.968ZM319.877,43.841a5.85,5.85,0,1,1,3.159-.931A5.834,5.834,0,0,1,319.877,43.841Zm787.482-.233a5.852,5.852,0,1,1,3.158-.93A5.831,5.831,0,0,1,1107.359,43.608ZM717.3,40.724a5.851,5.851,0,1,1,5.851-5.851A5.858,5.858,0,0,1,717.3,40.724Zm-275.61-.361a5.856,5.856,0,1,1,3.158-.931A5.832,5.832,0,0,1,441.687,40.363Zm335.756-2.284a5.852,5.852,0,1,1,5.072-2.927A5.844,5.844,0,0,1,777.443,38.079Zm494.958-.523a7.021,7.021,0,1,1,7.022-7.022A7.03,7.03,0,0,1,1272.4,37.556ZM111.77,34.839a5.852,5.852,0,1,1,5.073-2.927A5.843,5.843,0,0,1,111.77,34.839Zm494.955-.526a7.022,7.022,0,1,1,7.022-7.022A7.03,7.03,0,0,1,606.725,34.313Zm482.613-7.5a5.853,5.853,0,1,1,3.159-.931A5.831,5.831,0,0,1,1089.338,26.816ZM1405.9,26.18a8.66,8.66,0,1,1,8.66-8.66A8.67,8.67,0,0,1,1405.9,26.18ZM423.661,23.57a5.853,5.853,0,1,1,3.158-.93A5.833,5.833,0,0,1,423.661,23.57Zm316.572-.634a8.66,8.66,0,1,1,8.66-8.66A8.67,8.67,0,0,1,740.233,22.937Zm635.947-5.65a7.022,7.022,0,1,1,7.022-7.022A7.029,7.029,0,0,1,1376.18,17.286ZM710.509,14.043a7.021,7.021,0,1,1,7.021-7.022A7.03,7.03,0,0,1,710.509,14.043Z" transform="translate(-2.142 0)" fill="#fff"/>
</svg>
